<svg id="svg" xmlns="http://www.w3.org/2000/svg" xmlns:xlink="http://www.w3.org/1999/xlink" width="400" height="163.21559074299634" viewBox="0, 0, 400,163.21559074299634" version="1.1"><g id="svgg"><path id="path0" d="M273.954 19.811 C 271.515 22.274,268.505 27.462,262.580 39.415 C 258.659 47.325,259.011 47.038,251.157 48.747 C 234.690 52.331,228.989 54.017,228.989 55.302 C 228.989 56.392,232.605 57.081,232.968 56.060 C 233.375 54.914,256.768 49.732,256.750 50.792 C 256.719 52.593,236.335 91.360,235.339 91.511 C 233.612 91.774,232.093 90.392,231.493 88.011 C 230.489 84.021,226.479 82.275,226.152 85.685 C 226.032 86.940,226.355 87.774,227.524 89.228 L 229.052 91.130 227.681 93.885 C 222.597 104.099,215.193 100.696,219.935 90.326 C 221.688 86.491,224.703 81.861,225.449 81.856 C 226.592 81.848,229.169 79.127,228.842 78.273 C 227.638 75.136,221.520 81.265,217.694 89.440 C 216.068 92.915,214.085 94.189,206.795 96.440 C 198.374 99.041,197.760 97.622,203.118 87.942 C 207.753 79.568,208.204 78.601,207.877 77.747 C 207.397 76.496,204.557 78.225,203.898 80.170 C 203.630 80.961,202.362 83.538,201.080 85.897 C 195.768 95.672,195.168 100.365,199.229 100.365 C 201.371 100.365,208.930 97.995,212.586 96.177 C 215.636 94.660,215.531 94.627,216.251 97.320 C 218.179 104.535,225.389 103.065,229.688 94.583 L 230.872 92.246 233.053 92.752 L 235.235 93.258 233.763 96.203 C 232.953 97.822,227.915 107.422,222.566 117.535 C 212.925 135.765,212.043 137.902,214.009 138.277 C 215.253 138.514,218.172 135.501,217.255 134.926 C 216.502 134.455,216.288 134.934,222.693 122.777 C 226.105 116.302,231.800 105.421,236.908 95.616 C 238.618 92.334,240.441 89.150,240.959 88.541 C 247.315 81.057,249.167 78.635,254.225 71.192 C 257.759 65.992,264.481 54.977,266.937 50.364 L 268.525 47.378 272.509 46.588 C 278.376 45.423,278.490 45.442,277.330 47.381 C 276.810 48.252,273.475 54.665,269.920 61.632 C 260.669 79.760,257.677 85.365,256.671 86.444 C 256.184 86.967,255.786 87.796,255.786 88.288 C 255.786 88.779,254.896 90.950,253.809 93.112 C 248.251 104.168,253.430 102.481,266.039 89.130 C 282.726 71.460,286.092 69.437,284.631 77.958 C 282.184 92.231,286.041 96.345,296.224 90.323 L 298.904 88.739 299.419 90.477 C 301.030 95.908,309.187 94.464,320.575 86.730 L 323.436 84.787 323.166 87.408 C 322.554 93.330,329.035 92.658,339.157 85.748 L 341.965 83.832 342.115 85.639 C 342.414 89.230,347.069 87.532,356.774 80.294 C 361.279 76.934,361.300 76.930,361.696 79.407 C 362.123 82.079,363.656 83.048,366.747 82.603 C 369.357 82.227,375.602 79.341,376.894 77.913 C 378.446 76.199,377.117 76.279,373.739 78.103 C 367.276 81.594,363.575 81.092,364.172 76.807 C 364.740 72.730,364.719 72.390,363.885 72.220 C 363.447 72.131,360.612 74.049,357.551 76.505 C 349.559 82.919,343.971 86.561,343.971 85.358 C 343.971 82.648,358.011 70.448,362.401 69.344 C 363.786 68.996,366.020 70.104,365.687 70.973 C 365.277 72.042,367.333 72.827,368.220 71.940 C 368.894 71.266,368.886 71.064,368.139 69.925 C 364.979 65.102,357.660 67.376,348.662 75.976 C 340.231 84.036,327.165 91.529,325.694 89.149 C 324.247 86.809,332.558 72.336,334.611 73.618 C 336.692 74.917,339.282 71.511,337.540 69.769 C 335.213 67.442,330.059 71.630,326.190 78.990 C 324.288 82.607,323.034 83.524,313.545 88.241 C 308.171 90.912,304.211 91.791,302.804 90.623 C 301.047 89.165,304.150 82.198,306.363 82.632 C 310.248 83.394,318.485 76.419,318.060 72.727 C 317.492 67.783,307.895 73.250,302.619 81.524 C 300.013 85.610,298.633 86.906,295.001 88.675 C 287.080 92.534,285.121 90.466,286.699 79.912 C 288.757 66.146,283.469 67.572,265.652 85.589 C 259.957 91.347,255.298 95.829,255.298 95.549 C 255.298 94.163,259.429 87.829,263.595 82.826 C 274.985 69.147,283.617 55.528,286.308 46.992 C 287.271 43.936,286.906 44.096,294.519 43.376 C 297.734 43.072,301.516 42.709,302.923 42.570 C 305.257 42.339,306.237 41.746,304.978 41.326 C 304.701 41.234,301.686 41.422,298.278 41.744 C 294.871 42.066,291.082 42.342,289.859 42.358 L 287.636 42.387 287.846 39.482 C 288.383 32.053,285.085 32.055,281.353 39.486 L 279.239 43.695 275.823 44.259 C 270.573 45.126,269.011 44.610,270.820 42.607 C 272.767 40.449,277.151 27.274,277.543 22.402 C 277.965 17.154,277.160 16.573,273.954 19.811 M219.929 20.450 C 216.673 21.767,206.131 40.246,190.184 72.594 C 184.965 83.179,178.356 96.443,175.495 102.071 C 158.692 135.131,157.477 137.861,159.395 138.256 C 160.578 138.499,160.306 138.986,172.259 115.225 C 182.149 95.565,183.575 92.999,186.070 90.378 C 191.570 84.600,198.678 73.795,209.950 54.080 C 221.738 33.462,226.373 17.845,219.929 20.450 M272.921 30.008 C 269.085 41.680,266.365 46.285,263.306 46.285 C 262.159 46.285,262.414 45.608,267.032 36.408 C 274.426 21.673,276.347 19.586,272.921 30.008 M218.473 30.311 C 213.831 41.914,190.134 84.287,188.287 84.287 C 187.830 84.287,206.294 46.756,210.459 39.220 C 219.310 23.209,222.919 19.195,218.473 30.311 M179.714 32.999 C 177.260 35.715,173.708 42.159,166.550 56.882 C 145.273 100.645,146.728 98.243,139.922 100.826 C 127.634 105.488,127.063 103.877,135.700 88.916 C 138.370 84.293,138.713 82.826,137.128 82.826 C 136.100 82.826,133.496 85.448,133.496 86.482 C 133.496 86.927,132.777 88.533,131.899 90.052 C 127.483 97.690,125.599 104.225,127.385 105.708 C 128.508 106.639,132.661 105.768,138.842 103.304 C 142.848 101.708,143.589 101.547,144.253 102.128 C 145.475 103.198,145.551 103.142,152.479 96.072 C 164.226 84.087,171.072 80.237,172.256 84.951 C 174.137 92.446,150.699 109.625,136.833 110.914 C 133.221 111.249,132.177 111.831,134.251 112.352 C 142.355 114.386,164.749 102.679,172.253 92.485 C 180.699 81.012,169.963 76.357,158.526 86.533 C 156.288 88.524,155.420 89.043,155.420 88.389 C 155.420 87.367,159.288 80.749,162.124 76.918 C 176.615 57.344,185.845 39.630,185.065 32.887 C 184.786 30.468,181.946 30.528,179.714 32.999 M103.436 36.055 C 101.776 36.287,98.268 37.066,95.641 37.786 C 89.443 39.486,89.049 39.498,88.660 38.002 C 88.167 36.109,85.787 37.368,83.929 40.505 C 83.370 41.449,81.926 42.272,78.490 43.603 C 44.050 56.956,14.281 81.542,19.750 92.117 C 20.686 93.928,24.131 96.468,25.652 96.468 C 27.338 96.468,27.050 95.665,24.869 94.288 C 13.791 87.295,40.643 62.576,74.858 48.272 C 83.898 44.492,83.829 44.373,78.420 54.382 C 71.098 67.932,53.064 104.463,53.207 105.456 C 53.642 108.480,57.688 105.506,58.179 101.801 C 58.472 99.591,65.554 84.780,70.164 76.736 C 74.673 68.868,80.847 56.706,85.385 46.755 C 86.938 43.348,86.973 43.324,92.814 41.521 C 107.394 37.021,114.007 37.535,114.007 43.168 C 114.007 50.249,99.880 66.273,88.218 72.418 C 77.118 78.268,71.054 83.197,71.854 85.719 C 72.808 88.724,80.117 84.902,91.337 75.530 C 100.383 67.975,117.954 66.337,121.005 72.766 C 125.978 83.246,108.931 104.007,78.827 124.131 C 67.694 131.573,51.157 140.978,51.157 139.867 C 51.157 138.754,48.805 139.420,46.860 141.085 C 44.659 142.969,44.461 143.532,45.498 144.950 C 47.033 147.050,73.941 131.853,90.621 119.465 C 117.913 99.195,130.719 79.030,122.353 69.497 C 119.400 66.133,107.567 64.763,101.514 67.085 C 101.030 67.271,102.752 65.056,105.341 62.163 C 121.496 44.109,120.732 33.643,103.436 36.055 M182.217 36.285 C 182.217 38.227,175.964 50.892,170.789 59.433 C 163.104 72.114,161.893 73.313,166.450 63.732 C 173.104 49.739,182.217 33.876,182.217 36.285 M283.770 45.920 C 281.917 51.909,269.202 73.135,268.582 71.275 C 268.418 70.784,272.420 63.123,279.030 51.279 C 282.292 45.432,284.798 42.600,283.770 45.920 M262.237 53.715 C 258.319 61.155,253.659 68.890,249.407 75.012 C 245.805 80.198,244.485 81.064,246.826 76.705 C 247.537 75.382,250.946 68.645,254.401 61.734 C 260.827 48.878,261.210 48.340,263.987 48.265 C 265.070 48.235,264.987 48.494,262.237 53.715 M208.654 72.768 C 207.786 73.661,207.219 74.536,207.395 74.711 C 208.531 75.848,212.363 73.433,211.790 71.940 C 211.323 70.724,210.402 70.967,208.654 72.768 M313.524 76.854 C 310.774 79.344,307.043 81.632,306.555 81.128 C 306.115 80.673,311.524 75.743,313.764 74.558 C 316.361 73.183,316.234 74.401,313.524 76.854 M138.490 78.423 C 137.116 80.165,137.120 80.390,138.527 80.390 C 139.697 80.390,141.778 78.576,141.778 77.557 C 141.778 76.459,139.582 77.038,138.490 78.423 " stroke="none" fill="#000000" fill-rule="evenodd"></path></g></svg>