<svg id="svg" version="1.1" xmlns="http://www.w3.org/2000/svg" xmlns:xlink="http://www.w3.org/1999/xlink" width="400" height="103.46666666666667" viewBox="0, 0, 400,103.46666666666667"><g id="svgg"><path id="path0" d="M99.083 42.674 C 91.178 43.691,87.865 53.483,93.500 59.178 C 98.461 64.192,106.835 62.505,109.506 55.953 C 109.768 55.310,110.013 54.963,110.241 54.907 C 111.221 54.671,139.049 54.920,139.188 55.167 C 139.265 55.304,139.514 55.836,139.741 56.349 C 142.546 62.699,150.946 64.067,155.766 58.958 C 161.573 52.803,157.224 42.678,148.750 42.626 C 144.348 42.598,140.233 45.607,139.236 49.580 C 139.175 49.822,138.977 50.040,138.773 50.088 C 137.780 50.327,110.119 50.082,109.995 49.833 C 109.926 49.696,109.551 48.913,109.161 48.093 C 107.342 44.270,103.352 42.125,99.083 42.674 " stroke="none" fill="#faf9f9" fill-rule="evenodd"></path><path id="path1" d="M144.167 28.097 C 143.938 28.224,143.469 28.330,143.125 28.331 C 142.781 28.332,142.500 28.400,142.500 28.481 C 142.500 28.562,142.089 28.680,141.586 28.742 C 141.083 28.805,140.629 28.926,140.576 29.012 C 140.523 29.097,140.329 29.167,140.145 29.167 C 139.960 29.167,139.697 29.279,139.560 29.417 C 139.422 29.554,139.165 29.667,138.988 29.667 C 138.811 29.667,138.667 29.733,138.667 29.815 C 138.667 29.896,138.404 30.012,138.083 30.072 C 137.762 30.133,137.500 30.253,137.500 30.341 C 137.500 30.428,137.387 30.500,137.250 30.500 C 137.112 30.500,137.000 30.575,137.000 30.667 C 137.000 30.758,136.893 30.833,136.762 30.833 C 136.631 30.833,136.424 30.927,136.301 31.042 C 136.178 31.156,135.798 31.393,135.456 31.568 C 135.113 31.743,134.833 31.949,134.833 32.026 C 134.833 32.103,134.736 32.167,134.617 32.167 C 134.395 32.167,134.001 32.439,133.168 33.167 C 132.906 33.396,132.447 33.771,132.148 34.000 C 131.356 34.608,130.524 35.495,130.410 35.854 C 130.356 36.026,130.245 36.167,130.164 36.167 C 129.986 36.167,129.002 37.196,129.001 37.383 C 129.000 37.455,128.813 37.703,128.583 37.932 C 128.354 38.161,128.167 38.458,128.167 38.591 C 128.167 38.724,128.092 38.833,128.000 38.833 C 127.908 38.833,127.833 38.934,127.833 39.058 C 127.833 39.181,127.695 39.407,127.526 39.560 C 127.357 39.713,127.120 40.137,126.999 40.502 C 126.879 40.868,126.723 41.167,126.653 41.167 C 126.584 41.167,126.477 41.392,126.417 41.667 C 126.356 41.942,126.246 42.167,126.172 42.167 C 125.998 42.167,125.500 43.404,125.500 43.837 C 125.500 44.018,125.432 44.167,125.349 44.167 C 125.266 44.167,125.144 44.560,125.079 45.042 C 125.013 45.523,124.891 45.960,124.806 46.014 C 124.722 46.068,124.607 47.024,124.551 48.139 L 124.449 50.167 131.600 50.164 C 139.508 50.161,138.982 50.234,139.412 49.083 C 143.228 38.863,158.373 41.459,158.373 52.333 C 158.373 62.751,143.944 65.862,139.741 56.349 C 139.514 55.836,139.265 55.304,139.188 55.167 C 139.067 54.951,138.031 54.911,131.748 54.873 L 124.449 54.830 124.556 56.695 C 124.614 57.721,124.729 58.604,124.811 58.655 C 124.893 58.707,125.013 59.144,125.079 59.625 C 125.144 60.106,125.266 60.500,125.349 60.500 C 125.432 60.500,125.500 60.648,125.500 60.830 C 125.500 61.262,125.998 62.500,126.172 62.500 C 126.246 62.500,126.356 62.725,126.417 63.000 C 126.477 63.275,126.584 63.500,126.654 63.500 C 126.723 63.500,126.867 63.788,126.972 64.140 C 127.078 64.491,127.314 64.915,127.499 65.082 C 127.683 65.249,127.833 65.486,127.833 65.609 C 127.833 65.732,127.908 65.833,128.000 65.833 C 128.092 65.833,128.167 65.930,128.167 66.047 C 128.167 66.261,128.585 66.851,129.292 67.633 C 129.498 67.862,129.667 68.108,129.667 68.180 C 129.667 68.252,129.817 68.358,130.000 68.417 C 130.183 68.475,130.333 68.615,130.333 68.728 C 130.333 68.966,131.360 70.063,132.147 70.667 C 132.446 70.896,132.906 71.271,133.168 71.500 C 134.001 72.228,134.395 72.500,134.617 72.500 C 134.736 72.500,134.833 72.563,134.833 72.640 C 134.833 72.718,135.113 72.924,135.456 73.099 C 135.798 73.274,136.178 73.510,136.301 73.625 C 136.424 73.740,136.631 73.833,136.762 73.833 C 136.893 73.833,137.000 73.908,137.000 74.000 C 137.000 74.092,137.112 74.167,137.250 74.167 C 137.387 74.167,137.500 74.242,137.500 74.333 C 137.500 74.425,137.594 74.500,137.708 74.501 C 137.823 74.502,138.109 74.603,138.344 74.725 C 138.580 74.848,138.973 74.999,139.219 75.061 C 139.465 75.123,139.667 75.247,139.667 75.337 C 139.667 75.426,139.850 75.500,140.073 75.500 C 140.297 75.500,140.523 75.570,140.576 75.655 C 140.629 75.740,141.083 75.861,141.586 75.924 C 142.089 75.987,142.500 76.105,142.500 76.186 C 142.500 76.267,142.781 76.334,143.125 76.334 C 143.469 76.335,143.965 76.447,144.227 76.584 C 144.815 76.891,152.764 76.959,152.864 76.659 C 152.896 76.563,153.352 76.440,153.878 76.385 C 154.403 76.331,154.833 76.231,154.833 76.163 C 154.833 76.094,155.245 75.987,155.747 75.924 C 156.250 75.861,156.705 75.740,156.757 75.655 C 156.810 75.570,157.036 75.500,157.260 75.500 C 157.484 75.500,157.667 75.426,157.667 75.337 C 157.667 75.247,157.854 75.126,158.083 75.068 C 158.313 75.011,158.500 74.907,158.500 74.837 C 158.500 74.767,158.800 74.661,159.167 74.603 C 159.533 74.544,159.833 74.422,159.833 74.331 C 159.833 74.241,159.946 74.167,160.083 74.167 C 160.221 74.167,160.333 74.092,160.333 74.000 C 160.333 73.908,160.440 73.833,160.571 73.833 C 160.702 73.833,160.912 73.731,161.038 73.605 C 161.163 73.480,161.431 73.325,161.633 73.261 C 161.835 73.197,162.000 73.074,162.000 72.989 C 162.000 72.903,162.112 72.833,162.250 72.833 C 162.387 72.833,162.500 72.758,162.500 72.667 C 162.500 72.575,162.596 72.500,162.713 72.500 C 162.830 72.500,163.172 72.275,163.473 72.000 C 163.774 71.725,164.054 71.500,164.095 71.500 C 164.186 71.500,165.146 70.666,165.400 70.367 C 165.501 70.248,165.680 70.061,165.798 69.950 C 165.916 69.840,166.216 69.541,166.465 69.287 C 166.713 69.032,167.198 68.551,167.542 68.218 C 167.885 67.885,168.167 67.529,168.167 67.427 C 168.167 67.325,168.298 67.117,168.458 66.965 C 168.876 66.571,169.041 66.334,169.417 65.588 C 169.600 65.224,169.884 64.775,170.048 64.591 C 170.212 64.407,170.389 64.086,170.441 63.878 C 170.493 63.670,170.597 63.500,170.671 63.500 C 170.746 63.500,170.856 63.274,170.917 62.998 C 171.048 62.402,171.458 61.546,171.677 61.410 C 171.763 61.357,171.833 61.131,171.833 60.907 C 171.833 60.683,171.903 60.500,171.988 60.500 C 172.073 60.500,172.194 60.087,172.257 59.581 C 172.321 59.076,172.439 58.621,172.519 58.571 C 172.600 58.521,172.667 58.269,172.667 58.011 C 172.667 57.752,172.779 57.271,172.917 56.942 C 173.115 56.467,173.167 55.521,173.167 52.333 C 173.167 49.145,173.115 48.200,172.917 47.724 C 172.779 47.395,172.667 46.915,172.667 46.656 C 172.667 46.398,172.600 46.145,172.519 46.095 C 172.439 46.045,172.321 45.591,172.257 45.086 C 172.194 44.580,172.073 44.167,171.988 44.167 C 171.903 44.167,171.833 43.984,171.833 43.760 C 171.833 43.536,171.763 43.310,171.677 43.257 C 171.458 43.121,171.048 42.264,170.917 41.668 C 170.856 41.392,170.746 41.167,170.671 41.167 C 170.597 41.167,170.493 40.996,170.441 40.788 C 170.389 40.580,170.212 40.262,170.048 40.080 C 169.884 39.899,169.579 39.399,169.369 38.970 C 169.160 38.542,168.805 38.017,168.581 37.804 C 168.356 37.591,168.171 37.335,168.170 37.235 C 168.168 37.135,167.885 36.781,167.542 36.448 C 167.198 36.116,166.713 35.635,166.465 35.380 C 166.216 35.125,165.916 34.827,165.798 34.716 C 165.680 34.606,165.501 34.419,165.400 34.300 C 165.140 33.993,164.185 33.167,164.091 33.167 C 164.047 33.167,163.781 32.942,163.500 32.667 C 163.219 32.392,162.879 32.167,162.744 32.167 C 162.610 32.167,162.500 32.092,162.500 32.000 C 162.500 31.908,162.387 31.833,162.250 31.833 C 162.112 31.833,162.000 31.763,162.000 31.678 C 162.000 31.592,161.835 31.470,161.633 31.406 C 161.431 31.342,161.163 31.187,161.038 31.061 C 160.912 30.936,160.702 30.833,160.571 30.833 C 160.440 30.833,160.333 30.758,160.333 30.667 C 160.333 30.575,160.221 30.500,160.083 30.500 C 159.946 30.500,159.833 30.426,159.833 30.335 C 159.833 30.245,159.533 30.123,159.167 30.064 C 158.800 30.005,158.500 29.900,158.500 29.830 C 158.500 29.760,158.313 29.656,158.083 29.598 C 157.854 29.541,157.667 29.420,157.667 29.330 C 157.667 29.240,157.484 29.167,157.260 29.167 C 157.036 29.167,156.810 29.097,156.757 29.012 C 156.705 28.926,156.250 28.805,155.747 28.742 C 155.245 28.680,154.833 28.572,154.833 28.504 C 154.833 28.436,154.403 28.336,153.878 28.281 C 153.352 28.227,152.896 28.104,152.864 28.008 C 152.769 27.723,144.692 27.806,144.167 28.097 " stroke="none" fill="#ec642c" fill-rule="evenodd"></path><path id="path2" d="M96.132 28.021 C 96.097 28.124,95.679 28.246,95.201 28.292 C 94.724 28.338,94.333 28.441,94.333 28.521 C 94.333 28.601,94.111 28.667,93.839 28.667 C 93.048 28.667,90.681 29.530,90.528 29.875 C 90.497 29.944,90.366 30.000,90.237 30.000 C 89.900 30.000,88.667 30.555,88.667 30.706 C 88.667 30.776,88.560 30.833,88.429 30.833 C 88.298 30.833,88.088 30.927,87.963 31.042 C 87.631 31.346,87.125 31.662,86.792 31.774 C 86.631 31.828,86.500 31.938,86.500 32.019 C 86.500 32.100,86.406 32.167,86.292 32.167 C 86.177 32.168,85.844 32.393,85.551 32.667 C 85.258 32.942,84.969 33.167,84.910 33.167 C 84.746 33.167,81.000 36.975,81.000 37.142 C 81.000 37.221,80.738 37.565,80.417 37.905 C 80.096 38.245,79.788 38.705,79.732 38.928 C 79.676 39.151,79.564 39.333,79.482 39.333 C 79.400 39.333,79.333 39.446,79.333 39.583 C 79.333 39.721,79.260 39.833,79.170 39.833 C 79.080 39.833,78.959 40.021,78.902 40.250 C 78.844 40.479,78.736 40.667,78.662 40.667 C 78.587 40.667,78.477 40.892,78.417 41.167 C 78.356 41.442,78.238 41.667,78.153 41.667 C 78.069 41.667,78.000 41.775,78.000 41.908 C 78.000 42.040,77.818 42.490,77.597 42.908 C 77.375 43.325,77.145 43.910,77.087 44.208 C 77.028 44.506,76.920 44.900,76.847 45.083 C 76.546 45.831,76.333 46.630,76.332 47.012 C 76.332 47.234,76.219 47.631,76.082 47.894 C 75.718 48.593,75.718 56.073,76.082 56.773 C 76.219 57.035,76.332 57.432,76.332 57.655 C 76.333 58.037,76.546 58.836,76.847 59.583 C 76.920 59.767,77.028 60.160,77.087 60.458 C 77.145 60.756,77.375 61.342,77.597 61.759 C 77.818 62.176,78.000 62.626,78.000 62.759 C 78.000 62.891,78.069 63.000,78.153 63.000 C 78.238 63.000,78.356 63.225,78.417 63.500 C 78.477 63.775,78.587 64.000,78.662 64.000 C 78.736 64.000,78.844 64.188,78.902 64.417 C 78.959 64.646,79.080 64.833,79.170 64.833 C 79.260 64.833,79.333 64.946,79.333 65.083 C 79.333 65.221,79.400 65.333,79.482 65.333 C 79.564 65.333,79.676 65.516,79.732 65.738 C 79.788 65.961,80.096 66.422,80.417 66.762 C 80.738 67.102,81.000 67.447,81.000 67.530 C 81.000 67.701,84.739 71.500,84.907 71.500 C 84.968 71.500,85.258 71.725,85.551 71.999 C 85.844 72.274,86.177 72.499,86.292 72.499 C 86.406 72.500,86.500 72.566,86.500 72.647 C 86.500 72.728,86.631 72.839,86.792 72.892 C 87.125 73.004,87.631 73.321,87.963 73.625 C 88.088 73.740,88.298 73.833,88.429 73.833 C 88.560 73.833,88.667 73.891,88.667 73.961 C 88.667 74.112,89.900 74.667,90.237 74.667 C 90.366 74.667,90.497 74.723,90.528 74.792 C 90.681 75.136,93.048 76.000,93.839 76.000 C 94.111 76.000,94.333 76.065,94.333 76.145 C 94.333 76.225,94.724 76.328,95.201 76.374 C 95.679 76.420,96.097 76.542,96.132 76.646 C 96.236 76.957,104.490 76.893,104.907 76.578 C 105.085 76.443,105.516 76.333,105.865 76.333 C 106.214 76.333,106.500 76.258,106.500 76.167 C 106.500 76.075,106.722 76.000,106.994 76.000 C 107.595 76.000,108.745 75.630,110.083 75.006 C 110.633 74.749,111.327 74.437,111.625 74.312 C 111.923 74.187,112.167 74.029,112.167 73.959 C 112.167 73.890,112.274 73.833,112.405 73.833 C 112.536 73.833,112.743 73.740,112.866 73.625 C 112.988 73.510,113.369 73.274,113.711 73.099 C 114.053 72.924,114.333 72.718,114.333 72.640 C 114.333 72.563,114.442 72.500,114.575 72.500 C 114.708 72.500,114.877 72.400,114.950 72.277 C 115.023 72.154,115.216 71.982,115.377 71.894 C 116.325 71.379,119.684 68.024,120.232 67.045 C 120.321 66.885,120.530 66.609,120.695 66.431 C 120.861 66.253,121.044 65.958,121.102 65.775 C 121.160 65.592,121.354 65.287,121.533 65.096 C 121.869 64.739,122.500 63.486,122.500 63.176 C 122.500 63.079,122.567 63.000,122.649 63.000 C 122.730 63.000,122.844 62.813,122.902 62.583 C 122.959 62.354,123.080 62.167,123.170 62.167 C 123.260 62.167,123.333 61.984,123.333 61.760 C 123.333 61.536,123.402 61.311,123.485 61.259 C 123.569 61.207,123.690 60.847,123.754 60.457 C 123.819 60.068,123.931 59.675,124.004 59.583 C 124.191 59.350,124.500 57.006,124.500 55.821 L 124.500 54.833 117.375 54.836 C 109.437 54.839,110.013 54.754,109.491 56.000 C 105.379 65.821,90.667 62.955,90.667 52.333 C 90.667 42.066,104.757 38.836,109.161 48.093 C 109.551 48.913,109.926 49.696,109.995 49.833 C 110.103 50.050,111.080 50.083,117.268 50.083 L 124.417 50.083 124.468 49.083 C 124.525 47.980,124.222 45.355,124.008 45.087 C 123.932 44.993,123.819 44.598,123.754 44.209 C 123.690 43.820,123.569 43.459,123.485 43.408 C 123.402 43.356,123.333 43.131,123.333 42.907 C 123.333 42.683,123.260 42.500,123.170 42.500 C 123.080 42.500,122.959 42.313,122.902 42.083 C 122.844 41.854,122.730 41.667,122.649 41.667 C 122.567 41.667,122.500 41.588,122.500 41.491 C 122.500 41.180,121.869 39.928,121.533 39.571 C 121.354 39.380,121.160 39.075,121.102 38.892 C 121.044 38.709,120.865 38.414,120.705 38.238 C 120.545 38.061,120.270 37.692,120.093 37.417 C 119.405 36.343,116.273 33.260,115.377 32.773 C 115.216 32.685,115.023 32.512,114.950 32.390 C 114.877 32.267,114.708 32.167,114.575 32.167 C 114.442 32.167,114.333 32.103,114.333 32.026 C 114.333 31.949,114.053 31.743,113.711 31.568 C 113.369 31.393,112.988 31.156,112.866 31.042 C 112.743 30.927,112.536 30.833,112.405 30.833 C 112.274 30.833,112.167 30.777,112.167 30.707 C 112.167 30.638,111.923 30.479,111.625 30.354 C 110.869 30.038,108.975 29.175,108.631 28.991 C 108.473 28.906,107.930 28.789,107.422 28.729 C 106.915 28.670,106.500 28.556,106.500 28.477 C 106.500 28.398,106.214 28.333,105.865 28.333 C 105.516 28.333,105.085 28.223,104.907 28.089 C 104.490 27.773,96.236 27.710,96.132 28.021 M312.167 41.583 L 312.167 44.333 310.833 44.333 L 309.500 44.333 309.500 45.667 C 309.500 47.188,309.516 47.167,308.833 46.500 C 308.552 46.225,308.230 46.000,308.118 46.000 C 308.005 46.000,307.820 45.850,307.705 45.667 C 307.591 45.483,307.394 45.333,307.269 45.333 C 307.143 45.333,306.949 45.223,306.837 45.088 C 306.725 44.953,306.378 44.794,306.067 44.736 C 305.755 44.677,305.500 44.563,305.500 44.481 C 305.500 44.400,305.365 44.333,305.200 44.333 C 305.035 44.333,304.806 44.240,304.692 44.125 C 304.539 43.972,303.598 43.917,301.167 43.917 C 298.736 43.917,297.794 43.972,297.642 44.125 C 297.527 44.240,297.261 44.333,297.050 44.333 C 296.839 44.333,296.667 44.402,296.667 44.487 C 296.667 44.571,296.442 44.690,296.167 44.750 C 295.892 44.810,295.667 44.929,295.667 45.013 C 295.667 45.098,295.530 45.167,295.363 45.167 C 295.197 45.167,294.808 45.392,294.500 45.667 C 294.192 45.942,293.874 46.167,293.792 46.167 C 293.598 46.167,291.833 47.935,291.833 48.130 C 291.833 48.213,291.644 48.499,291.412 48.766 C 291.181 49.032,290.948 49.419,290.894 49.625 C 290.841 49.831,290.737 50.000,290.663 50.000 C 290.590 50.000,290.479 50.300,290.417 50.667 C 290.355 51.033,290.244 51.333,290.170 51.333 C 289.931 51.333,289.790 52.541,289.790 54.583 C 289.790 56.626,289.931 57.833,290.170 57.833 C 290.244 57.833,290.355 58.133,290.417 58.500 C 290.479 58.867,290.598 59.167,290.681 59.167 C 290.765 59.167,290.833 59.274,290.833 59.405 C 290.833 59.536,290.927 59.745,291.042 59.870 C 291.292 60.143,291.627 60.656,291.780 61.000 C 292.106 61.734,294.815 64.000,295.366 64.000 C 295.531 64.000,295.667 64.069,295.667 64.153 C 295.667 64.238,295.892 64.356,296.167 64.417 C 296.442 64.477,296.667 64.596,296.667 64.680 C 296.667 64.764,296.848 64.833,297.069 64.833 C 297.291 64.833,297.503 64.927,297.542 65.042 C 297.594 65.199,298.446 65.250,301.047 65.250 C 303.574 65.250,304.538 65.195,304.692 65.042 C 304.806 64.927,305.035 64.833,305.200 64.833 C 305.365 64.833,305.500 64.767,305.500 64.685 C 305.500 64.604,305.755 64.489,306.067 64.431 C 306.378 64.372,306.725 64.214,306.837 64.079 C 306.949 63.944,307.112 63.833,307.198 63.833 C 307.422 63.833,308.486 63.023,309.125 62.366 C 309.639 61.838,309.852 61.167,309.507 61.167 C 309.419 61.167,309.055 60.885,308.697 60.542 C 308.340 60.198,307.881 59.804,307.677 59.667 C 307.330 59.433,306.932 59.099,305.785 58.080 C 305.203 57.563,304.888 57.559,304.420 58.064 C 304.218 58.282,303.890 58.512,303.693 58.575 C 303.495 58.638,303.333 58.759,303.333 58.845 C 303.333 58.930,303.227 59.000,303.097 59.000 C 302.967 59.000,302.833 59.085,302.798 59.189 C 302.631 59.690,299.000 59.311,299.000 58.793 C 299.000 58.723,298.885 58.667,298.745 58.667 C 298.604 58.667,298.447 58.557,298.396 58.423 C 298.345 58.289,298.160 58.134,297.985 58.079 C 297.810 58.023,297.622 57.795,297.566 57.572 C 297.510 57.349,297.403 57.167,297.329 57.167 C 297.254 57.167,297.144 56.943,297.084 56.669 C 297.024 56.395,296.905 56.128,296.821 56.075 C 296.620 55.951,296.620 53.215,296.821 53.091 C 296.905 53.039,297.024 52.772,297.084 52.498 C 297.144 52.224,297.262 52.000,297.347 52.000 C 297.431 52.000,297.500 51.917,297.500 51.817 C 297.500 51.578,298.578 50.500,298.817 50.500 C 298.917 50.500,299.000 50.428,299.000 50.341 C 299.000 50.253,299.263 50.132,299.585 50.072 C 299.907 50.012,300.211 49.896,300.262 49.814 C 300.382 49.620,301.787 49.623,301.908 49.819 C 301.959 49.903,302.301 50.022,302.668 50.083 C 303.034 50.145,303.333 50.259,303.333 50.337 C 303.333 50.414,303.499 50.530,303.702 50.595 C 303.905 50.659,304.210 50.889,304.381 51.106 C 304.878 51.738,304.985 51.687,306.832 49.958 C 307.200 49.615,307.569 49.333,307.653 49.333 C 307.738 49.333,308.110 49.033,308.480 48.667 C 309.381 47.775,309.500 47.814,309.500 49.000 L 309.500 50.000 310.833 50.000 L 312.167 50.000 312.167 55.231 C 312.167 60.449,312.338 62.167,312.859 62.167 C 312.936 62.167,313.000 62.284,313.000 62.428 C 313.000 62.756,314.756 64.500,315.087 64.500 C 315.223 64.500,315.333 64.575,315.333 64.667 C 315.333 64.758,315.440 64.833,315.569 64.833 C 315.699 64.833,315.837 64.927,315.875 65.042 C 316.141 65.840,323.000 64.997,323.000 64.166 C 323.000 64.087,323.169 63.999,323.375 63.970 C 323.789 63.911,323.899 61.999,323.511 61.611 C 323.413 61.513,323.333 61.261,323.333 61.050 C 323.333 60.839,323.267 60.667,323.186 60.667 C 323.104 60.667,322.984 60.310,322.919 59.875 C 322.762 58.825,322.319 58.538,321.744 59.113 C 321.160 59.697,319.333 59.378,319.333 58.692 C 319.333 58.602,319.240 58.497,319.125 58.458 C 318.968 58.406,318.903 57.361,318.860 54.195 L 318.803 50.000 320.902 50.000 L 323.000 50.000 323.000 47.167 L 323.000 44.333 320.917 44.333 L 318.833 44.333 318.833 41.583 L 318.833 38.833 315.500 38.833 L 312.167 38.833 312.167 41.583 M187.833 43.982 C 187.604 44.051,187.173 44.168,186.875 44.241 C 186.577 44.315,186.333 44.432,186.333 44.502 C 186.333 44.572,186.071 44.679,185.750 44.739 C 185.429 44.799,185.166 44.901,185.165 44.966 C 185.164 45.030,184.868 45.225,184.507 45.397 C 184.147 45.570,183.813 45.814,183.765 45.939 C 183.716 46.064,183.580 46.167,183.462 46.167 C 183.198 46.167,181.500 47.875,181.500 48.141 C 181.500 48.247,181.444 48.334,181.375 48.334 C 181.306 48.335,181.107 48.579,180.932 48.876 C 180.088 50.313,179.813 50.932,179.721 51.603 C 179.666 52.005,179.557 52.333,179.477 52.333 C 179.398 52.333,179.333 53.346,179.333 54.583 C 179.333 55.821,179.399 56.833,179.479 56.833 C 179.558 56.833,179.673 57.208,179.734 57.667 C 179.795 58.125,179.908 58.500,179.985 58.500 C 180.062 58.500,180.170 58.723,180.224 58.995 C 180.278 59.267,180.475 59.642,180.661 59.828 C 180.848 60.014,181.000 60.282,181.000 60.422 C 181.000 60.562,181.112 60.720,181.250 60.773 C 181.387 60.826,181.502 60.955,181.505 61.059 C 181.511 61.317,182.431 62.289,183.339 62.996 C 183.749 63.314,184.122 63.627,184.168 63.691 C 184.215 63.755,184.459 63.858,184.710 63.922 C 184.961 63.985,185.167 64.100,185.167 64.177 C 185.167 64.255,185.429 64.367,185.750 64.428 C 186.071 64.488,186.333 64.604,186.333 64.685 C 186.333 64.767,186.468 64.833,186.633 64.833 C 186.798 64.833,187.027 64.927,187.142 65.042 C 187.294 65.194,188.235 65.250,190.666 65.250 C 193.097 65.250,194.039 65.194,194.192 65.042 C 194.306 64.927,194.535 64.833,194.700 64.833 C 194.865 64.833,195.000 64.768,195.000 64.688 C 195.000 64.608,195.300 64.495,195.667 64.436 C 196.033 64.377,196.333 64.257,196.333 64.168 C 196.333 64.079,196.521 63.959,196.750 63.902 C 196.979 63.844,197.167 63.746,197.167 63.685 C 197.167 63.623,197.373 63.450,197.625 63.301 C 198.191 62.966,199.333 61.837,199.333 61.613 C 199.333 61.427,197.653 59.836,197.455 59.834 C 197.385 59.834,197.073 59.571,196.761 59.250 C 196.449 58.929,196.130 58.667,196.051 58.667 C 195.972 58.667,195.784 58.535,195.632 58.375 C 195.191 57.907,194.861 57.667,194.662 57.667 C 194.560 57.667,194.378 57.760,194.259 57.875 C 194.139 57.990,193.872 58.196,193.667 58.333 C 193.461 58.471,193.195 58.677,193.075 58.792 C 192.955 58.906,192.746 59.000,192.609 59.000 C 192.473 59.000,192.330 59.094,192.292 59.208 C 192.243 59.354,191.780 59.417,190.750 59.417 C 189.720 59.417,189.257 59.354,189.208 59.208 C 189.170 59.094,189.033 59.000,188.903 59.000 C 188.773 59.000,188.667 58.925,188.667 58.833 C 188.667 58.742,188.558 58.667,188.425 58.667 C 188.116 58.667,187.044 57.569,186.899 57.104 C 186.838 56.909,186.725 56.709,186.646 56.658 C 186.220 56.382,186.225 52.782,186.652 52.505 C 186.727 52.456,186.842 52.246,186.907 52.037 C 187.050 51.580,188.128 50.500,188.442 50.500 C 188.566 50.500,188.667 50.431,188.667 50.347 C 188.667 50.262,188.910 50.141,189.208 50.077 C 189.506 50.014,189.842 49.887,189.955 49.796 C 190.324 49.499,192.795 50.016,193.050 50.444 C 193.123 50.566,193.258 50.667,193.349 50.667 C 193.440 50.667,193.703 50.854,193.932 51.083 C 194.395 51.547,194.749 51.614,194.950 51.276 C 195.023 51.153,195.308 50.909,195.582 50.735 C 195.856 50.560,196.318 50.173,196.610 49.875 C 196.901 49.577,197.201 49.333,197.278 49.333 C 197.354 49.333,197.699 49.033,198.044 48.666 C 198.389 48.300,198.745 48.000,198.835 48.000 C 198.926 48.000,199.000 47.790,199.000 47.533 C 199.000 47.054,198.106 46.000,197.700 46.000 C 197.590 46.000,197.500 45.943,197.500 45.872 C 197.500 45.661,195.725 44.667,195.349 44.667 C 195.157 44.667,195.000 44.608,195.000 44.537 C 195.000 44.036,189.156 43.584,187.833 43.982 M207.238 43.982 C 206.957 44.054,206.489 44.231,206.198 44.376 C 205.908 44.521,205.444 44.689,205.168 44.750 C 204.892 44.810,204.667 44.921,204.667 44.995 C 204.667 45.070,204.479 45.178,204.250 45.235 C 204.021 45.293,203.833 45.413,203.833 45.503 C 203.833 45.593,203.759 45.667,203.668 45.667 C 203.130 45.667,200.437 48.505,200.230 49.292 C 200.175 49.498,200.064 49.667,199.982 49.667 C 199.900 49.667,199.833 49.749,199.833 49.850 C 199.833 50.022,199.547 50.732,199.108 51.650 C 198.991 51.895,198.917 52.995,198.917 54.483 C 198.917 56.888,198.959 57.140,199.603 58.609 C 199.730 58.897,199.833 59.216,199.833 59.317 C 199.833 59.418,199.900 59.500,199.982 59.500 C 200.064 59.500,200.178 59.688,200.235 59.917 C 200.293 60.146,200.413 60.333,200.503 60.333 C 200.593 60.333,200.667 60.408,200.667 60.499 C 200.667 60.770,202.301 62.667,202.535 62.667 C 202.627 62.667,202.850 62.854,203.030 63.083 C 203.210 63.313,203.465 63.500,203.595 63.500 C 203.726 63.500,203.833 63.574,203.833 63.663 C 203.833 63.753,204.021 63.874,204.250 63.932 C 204.479 63.989,204.667 64.097,204.667 64.171 C 204.667 64.246,204.888 64.356,205.160 64.415 C 205.431 64.475,205.974 64.687,206.368 64.887 C 207.448 65.435,213.263 65.441,214.178 64.895 C 214.505 64.700,215.011 64.487,215.303 64.423 C 215.595 64.359,215.833 64.246,215.833 64.171 C 215.833 64.097,216.021 63.989,216.250 63.932 C 216.479 63.874,216.667 63.753,216.667 63.663 C 216.667 63.574,216.774 63.500,216.905 63.500 C 217.035 63.500,217.282 63.323,217.453 63.106 C 217.623 62.889,217.912 62.664,218.094 62.606 C 218.276 62.548,218.536 62.338,218.671 62.138 C 218.806 61.938,219.110 61.566,219.345 61.311 C 219.581 61.055,219.919 60.562,220.095 60.215 C 220.272 59.867,220.473 59.558,220.542 59.528 C 220.610 59.497,220.667 59.366,220.667 59.236 C 220.667 59.106,220.733 59.000,220.815 59.000 C 220.896 59.000,221.015 58.719,221.080 58.375 C 221.144 58.031,221.284 57.645,221.390 57.516 C 221.658 57.192,221.658 51.974,221.390 51.651 C 221.284 51.522,221.144 51.135,221.080 50.792 C 221.015 50.448,220.896 50.167,220.815 50.167 C 220.733 50.167,220.667 50.054,220.667 49.917 C 220.667 49.779,220.600 49.667,220.518 49.667 C 220.436 49.667,220.322 49.478,220.264 49.247 C 220.206 49.016,220.015 48.659,219.839 48.455 C 219.664 48.251,219.366 47.903,219.177 47.683 C 218.988 47.463,218.832 47.238,218.830 47.183 C 218.828 47.128,218.454 46.821,218.000 46.500 C 217.546 46.179,217.172 45.860,217.170 45.792 C 217.168 45.723,217.054 45.667,216.917 45.667 C 216.779 45.667,216.667 45.593,216.667 45.503 C 216.667 45.413,216.479 45.293,216.250 45.235 C 216.021 45.178,215.833 45.070,215.833 44.995 C 215.833 44.921,215.612 44.811,215.340 44.752 C 215.069 44.692,214.526 44.482,214.132 44.285 C 213.365 43.901,208.410 43.683,207.238 43.982 M233.458 43.944 C 233.206 43.987,233.000 44.092,233.000 44.178 C 233.000 44.263,232.850 44.333,232.667 44.333 C 232.483 44.333,232.333 44.400,232.333 44.482 C 232.333 44.564,232.136 44.680,231.895 44.740 C 231.654 44.801,231.223 45.085,230.937 45.372 L 230.417 45.894 230.366 45.114 L 230.315 44.333 226.824 44.333 L 223.333 44.333 223.333 54.583 L 223.333 64.833 226.821 64.833 L 230.309 64.833 230.363 58.494 C 230.400 54.067,230.473 52.118,230.603 52.035 C 230.705 51.970,230.845 51.737,230.913 51.518 C 231.086 50.965,231.915 50.191,232.462 50.073 C 232.712 50.018,233.074 49.898,233.267 49.805 C 234.286 49.315,236.667 51.083,236.667 52.330 C 236.667 52.515,236.742 52.667,236.833 52.667 C 236.941 52.667,237.000 54.806,237.000 58.750 L 237.000 64.833 240.333 64.833 L 243.667 64.833 243.667 57.177 C 243.667 52.252,243.607 49.483,243.500 49.417 C 243.408 49.360,243.333 49.135,243.333 48.917 C 243.333 48.698,243.264 48.477,243.179 48.425 C 243.095 48.372,242.976 48.105,242.916 47.831 C 242.856 47.557,242.738 47.333,242.653 47.333 C 242.569 47.333,242.500 47.228,242.500 47.099 C 242.500 46.736,240.602 44.865,240.108 44.741 C 239.865 44.680,239.667 44.564,239.667 44.482 C 239.667 44.400,239.523 44.333,239.347 44.333 C 239.172 44.333,238.997 44.240,238.959 44.127 C 238.889 43.917,234.478 43.771,233.458 43.944 M256.500 43.934 C 255.662 44.235,254.334 44.993,253.833 45.456 L 253.250 45.994 253.200 45.164 L 253.149 44.333 249.741 44.333 L 246.333 44.333 246.333 54.583 L 246.333 64.833 249.750 64.833 L 253.167 64.833 253.167 59.093 C 253.167 55.446,253.227 53.315,253.333 53.250 C 253.425 53.193,253.500 52.931,253.500 52.668 C 253.500 51.554,254.558 50.217,255.569 50.053 C 255.898 50.000,256.167 49.891,256.167 49.812 C 256.167 49.610,256.957 49.629,257.083 49.833 C 257.140 49.925,257.372 50.000,257.600 50.000 C 258.032 50.000,259.333 51.198,259.333 51.597 C 259.333 51.712,259.427 51.837,259.542 51.875 C 259.702 51.928,259.762 53.418,259.801 58.389 L 259.852 64.833 263.176 64.833 L 266.500 64.833 266.500 57.172 C 266.500 49.494,266.416 48.277,265.855 47.833 C 265.797 47.788,265.564 47.393,265.336 46.957 C 265.109 46.521,264.790 46.122,264.628 46.071 C 264.466 46.020,264.333 45.911,264.333 45.829 C 264.333 45.557,263.439 44.847,262.966 44.743 C 262.710 44.686,262.499 44.590,262.499 44.528 C 262.493 44.057,257.526 43.565,256.500 43.934 M275.125 44.110 C 274.690 44.260,274.333 44.446,274.333 44.524 C 274.333 44.603,274.173 44.667,273.977 44.667 C 273.575 44.667,271.988 45.587,271.783 45.938 C 271.710 46.064,271.560 46.169,271.450 46.172 C 271.340 46.174,271.063 46.402,270.833 46.678 C 270.604 46.953,270.210 47.409,269.958 47.690 C 269.706 47.972,269.500 48.306,269.500 48.434 C 269.500 48.562,269.431 48.667,269.347 48.667 C 269.262 48.667,269.144 48.892,269.083 49.167 C 269.023 49.442,268.904 49.667,268.820 49.667 C 268.736 49.667,268.667 49.848,268.667 50.069 C 268.667 50.291,268.592 50.497,268.502 50.528 C 268.411 50.558,268.288 51.052,268.228 51.625 C 268.168 52.198,268.055 52.667,267.976 52.667 C 267.898 52.667,267.833 53.529,267.833 54.583 C 267.833 55.637,267.898 56.500,267.976 56.500 C 268.055 56.500,268.168 56.969,268.228 57.542 C 268.288 58.115,268.411 58.608,268.502 58.639 C 268.592 58.669,268.667 58.796,268.667 58.919 C 268.667 60.023,272.044 64.000,272.982 64.000 C 273.084 64.000,273.167 64.072,273.167 64.159 C 273.167 64.247,273.429 64.367,273.750 64.428 C 274.071 64.488,274.333 64.604,274.333 64.685 C 274.333 64.767,274.506 64.833,274.717 64.833 C 274.928 64.833,275.194 64.927,275.308 65.042 C 275.461 65.195,276.416 65.250,278.900 65.250 C 282.251 65.250,282.390 65.232,283.539 64.647 C 283.699 64.566,283.924 64.499,284.039 64.498 C 284.155 64.497,284.587 64.314,285.000 64.090 C 285.412 63.867,285.900 63.611,286.083 63.521 C 286.267 63.432,286.705 63.104,287.058 62.794 L 287.699 62.228 286.002 60.489 C 285.068 59.533,284.190 58.581,284.050 58.375 C 283.741 57.921,282.983 57.874,282.573 58.284 C 281.499 59.358,278.450 59.888,277.081 59.238 C 276.341 58.887,275.333 57.929,275.333 57.578 C 275.333 57.443,275.267 57.333,275.186 57.333 C 275.105 57.333,275.000 57.183,274.952 57.000 C 274.866 56.671,274.947 56.667,281.932 56.667 L 289.000 56.667 289.000 54.843 C 289.000 53.807,288.928 52.975,288.833 52.917 C 288.742 52.860,288.667 52.518,288.667 52.157 C 288.667 51.796,288.592 51.500,288.500 51.500 C 288.408 51.500,288.333 51.294,288.332 51.042 C 288.332 50.790,288.226 50.382,288.098 50.136 C 287.970 49.890,287.814 49.459,287.752 49.178 C 287.691 48.897,287.571 48.667,287.487 48.667 C 287.402 48.667,287.333 48.554,287.333 48.417 C 287.333 48.279,287.263 48.167,287.178 48.167 C 287.092 48.167,286.969 47.998,286.904 47.793 C 286.763 47.351,284.809 45.333,284.522 45.333 C 284.412 45.333,284.280 45.223,284.229 45.088 C 284.177 44.953,283.879 44.795,283.567 44.736 C 283.255 44.677,283.000 44.563,283.000 44.481 C 283.000 44.400,282.865 44.333,282.700 44.333 C 282.535 44.333,282.306 44.240,282.192 44.125 C 281.845 43.777,276.129 43.765,275.125 44.110 M279.333 49.500 C 279.333 49.592,279.521 49.667,279.750 49.667 C 279.979 49.667,280.167 49.742,280.167 49.833 C 280.167 49.925,280.268 50.000,280.392 50.000 C 280.779 50.000,282.333 51.799,282.333 52.246 C 282.333 52.294,280.683 52.333,278.667 52.333 C 275.519 52.333,275.000 52.298,275.000 52.083 C 275.000 51.946,275.075 51.833,275.167 51.833 C 275.258 51.833,275.334 51.740,275.334 51.625 C 275.336 51.075,277.136 49.667,277.837 49.667 C 278.007 49.667,278.193 49.592,278.250 49.500 C 278.307 49.408,278.574 49.333,278.843 49.333 C 279.113 49.333,279.333 49.408,279.333 49.500 M211.072 49.814 C 211.122 49.896,211.419 50.010,211.731 50.069 C 212.044 50.128,212.392 50.286,212.504 50.421 C 212.616 50.556,212.792 50.667,212.895 50.668 C 212.999 50.669,213.271 50.907,213.500 51.198 C 213.729 51.488,214.011 51.820,214.127 51.936 C 214.243 52.052,214.384 52.377,214.440 52.657 C 214.496 52.937,214.607 53.167,214.688 53.167 C 214.768 53.167,214.833 53.804,214.833 54.583 C 214.833 55.362,214.768 56.000,214.688 56.000 C 214.607 56.000,214.497 56.221,214.443 56.491 C 214.279 57.313,213.188 58.491,212.167 58.947 C 212.029 59.009,211.863 59.139,211.798 59.238 C 211.622 59.502,208.797 59.475,208.708 59.208 C 208.670 59.094,208.533 59.000,208.403 59.000 C 208.273 59.000,208.167 58.930,208.167 58.845 C 208.167 58.759,207.998 58.637,207.792 58.573 C 207.322 58.427,206.519 57.551,206.393 57.047 C 206.340 56.838,206.230 56.667,206.149 56.667 C 206.067 56.667,206.000 56.517,206.000 56.333 C 206.000 56.150,205.925 56.000,205.833 56.000 C 205.735 56.000,205.667 55.417,205.667 54.583 C 205.667 53.750,205.735 53.167,205.833 53.167 C 205.925 53.167,206.000 53.053,206.000 52.913 C 206.000 52.344,207.209 50.780,207.792 50.596 C 207.998 50.531,208.167 50.411,208.167 50.330 C 208.167 50.248,208.430 50.132,208.752 50.072 C 209.074 50.012,209.378 49.896,209.428 49.814 C 209.479 49.733,209.848 49.667,210.250 49.667 C 210.652 49.667,211.021 49.733,211.072 49.814 M210.500 72.167 L 210.500 76.500 211.167 76.500 L 211.833 76.500 211.833 72.167 L 211.833 67.833 211.167 67.833 L 210.500 67.833 210.500 72.167 M230.000 69.167 C 230.000 70.625,229.986 70.653,229.500 70.167 C 229.136 69.803,226.833 69.659,226.833 70.000 C 226.833 70.092,226.721 70.167,226.583 70.167 C 226.446 70.167,226.333 70.237,226.333 70.322 C 226.333 70.408,226.187 70.524,226.009 70.581 C 225.830 70.637,225.632 70.849,225.569 71.050 C 225.507 71.252,225.371 71.470,225.269 71.536 C 224.996 71.710,225.017 75.033,225.292 75.125 C 225.406 75.163,225.500 75.317,225.500 75.467 C 225.500 75.779,226.274 76.500,226.609 76.500 C 226.732 76.500,226.833 76.575,226.833 76.667 C 226.833 76.938,229.446 76.880,229.551 76.606 C 229.615 76.440,229.866 76.401,230.486 76.461 L 231.333 76.542 231.333 72.188 L 231.333 67.833 230.667 67.833 L 230.000 67.833 230.000 69.167 M303.208 67.944 C 302.665 68.163,302.969 69.333,303.570 69.333 C 304.460 69.333,304.667 69.192,304.667 68.583 C 304.667 67.908,304.010 67.620,303.208 67.944 M182.000 72.250 L 182.000 76.500 182.667 76.500 L 183.333 76.500 183.333 74.667 L 183.333 72.833 185.583 72.833 L 187.833 72.833 187.833 72.167 L 187.833 71.500 185.583 71.500 L 183.333 71.500 183.333 70.417 L 183.333 69.333 185.833 69.333 L 188.333 69.333 188.333 68.667 L 188.333 68.000 185.167 68.000 L 182.000 68.000 182.000 72.250 M241.500 72.261 L 241.500 76.522 244.305 76.469 L 247.110 76.417 247.638 75.888 C 248.369 75.156,248.435 73.203,247.750 72.569 C 247.306 72.158,247.197 71.573,247.542 71.458 C 248.078 71.280,247.797 69.074,247.167 68.519 L 246.583 68.005 244.042 68.003 L 241.500 68.000 241.500 72.261 M267.000 72.250 L 267.000 76.500 267.667 76.500 L 268.333 76.500 268.333 75.083 L 268.333 73.667 270.250 73.667 C 271.304 73.667,272.167 73.600,272.167 73.518 C 272.167 73.436,272.354 73.322,272.583 73.265 C 272.813 73.207,273.000 73.092,273.000 73.009 C 273.000 72.925,273.131 72.726,273.292 72.565 C 274.129 71.728,273.405 68.333,272.389 68.333 C 272.267 68.333,272.167 68.258,272.167 68.167 C 272.167 68.063,271.194 68.000,269.583 68.000 L 267.000 68.000 267.000 72.250 M245.875 69.542 C 247.359 70.242,246.071 71.500,243.869 71.500 L 242.833 71.500 242.833 70.417 L 242.833 69.333 244.133 69.333 C 244.848 69.333,245.632 69.427,245.875 69.542 M271.333 69.500 C 271.333 69.592,271.440 69.667,271.571 69.667 C 272.001 69.667,272.333 70.175,272.333 70.833 C 272.333 71.492,272.001 72.000,271.571 72.000 C 271.440 72.000,271.333 72.075,271.333 72.167 C 271.333 72.265,270.722 72.333,269.833 72.333 L 268.333 72.333 268.333 70.833 L 268.333 69.333 269.833 69.333 C 270.722 69.333,271.333 69.401,271.333 69.500 M202.833 70.000 C 202.833 70.092,202.755 70.167,202.660 70.167 C 202.215 70.167,201.184 71.320,201.066 71.950 C 200.661 74.111,201.464 76.500,202.595 76.500 C 202.726 76.500,202.833 76.575,202.833 76.667 C 202.833 76.765,203.417 76.833,204.250 76.833 C 205.029 76.833,205.667 76.767,205.667 76.685 C 205.667 76.604,205.929 76.488,206.250 76.428 C 206.749 76.334,206.833 76.252,206.833 75.859 C 206.833 75.043,206.094 74.725,205.407 75.245 C 205.229 75.379,204.915 75.492,204.708 75.495 C 204.502 75.498,204.333 75.575,204.333 75.667 C 204.333 75.758,204.221 75.833,204.083 75.833 C 203.946 75.833,203.832 75.777,203.831 75.708 C 203.830 75.640,203.537 75.443,203.179 75.272 C 202.589 74.989,202.342 74.629,202.336 74.042 C 202.334 73.884,202.943 73.833,204.833 73.833 L 207.333 73.833 207.333 73.333 C 207.333 73.058,207.268 72.833,207.188 72.833 C 207.108 72.833,206.993 72.458,206.932 72.000 C 206.872 71.542,206.749 71.167,206.661 71.167 C 206.572 71.167,206.500 71.071,206.500 70.954 C 206.500 70.731,206.144 70.396,205.531 70.042 C 205.102 69.793,202.833 69.758,202.833 70.000 M217.500 70.000 C 217.500 70.092,217.422 70.167,217.326 70.167 C 216.881 70.167,215.851 71.320,215.733 71.950 C 215.327 74.111,216.130 76.500,217.262 76.500 C 217.393 76.500,217.500 76.575,217.500 76.667 C 217.500 76.765,218.083 76.833,218.917 76.833 C 219.696 76.833,220.333 76.767,220.333 76.685 C 220.333 76.604,220.596 76.488,220.917 76.428 C 221.416 76.334,221.500 76.252,221.500 75.859 C 221.500 75.043,220.761 74.725,220.074 75.245 C 219.896 75.379,219.581 75.492,219.375 75.495 C 219.169 75.498,219.000 75.575,219.000 75.667 C 219.000 75.758,218.887 75.833,218.750 75.833 C 218.612 75.833,218.499 75.777,218.498 75.708 C 218.497 75.640,218.203 75.443,217.846 75.272 C 217.256 74.989,217.009 74.629,217.002 74.042 C 217.001 73.884,217.610 73.833,219.500 73.833 L 222.000 73.833 222.000 73.333 C 222.000 73.058,221.935 72.833,221.855 72.833 C 221.775 72.833,221.660 72.458,221.599 72.000 C 221.538 71.542,221.416 71.167,221.328 71.167 C 221.239 71.167,221.167 71.071,221.167 70.954 C 221.167 70.731,220.810 70.396,220.198 70.042 C 219.769 69.793,217.500 69.758,217.500 70.000 M278.333 70.000 C 278.333 70.092,278.188 70.167,278.011 70.167 C 277.644 70.167,277.427 70.674,277.583 71.167 C 277.705 71.549,278.755 71.651,278.875 71.292 C 279.008 70.894,280.429 71.034,280.819 71.484 C 281.437 72.196,281.297 72.296,279.597 72.359 C 277.486 72.437,277.011 72.829,277.007 74.500 C 277.004 75.927,277.124 76.316,277.603 76.437 C 277.821 76.491,278.000 76.603,278.000 76.685 C 278.000 76.766,278.600 76.833,279.333 76.833 C 280.111 76.833,280.667 76.764,280.667 76.667 C 280.667 76.575,281.084 76.500,281.594 76.500 L 282.522 76.500 282.469 73.639 C 282.430 71.514,282.362 70.759,282.205 70.707 C 282.089 70.668,281.888 70.531,281.759 70.402 C 281.630 70.272,281.443 70.167,281.345 70.167 C 281.247 70.167,281.167 70.092,281.167 70.000 C 281.167 69.902,280.583 69.833,279.750 69.833 C 278.917 69.833,278.333 69.902,278.333 70.000 M287.667 70.000 C 287.667 70.092,287.554 70.167,287.417 70.167 C 286.845 70.167,286.500 70.794,286.500 71.833 C 286.500 72.389,286.574 72.833,286.667 72.833 C 286.758 72.833,286.833 72.946,286.833 73.083 C 286.833 73.221,286.946 73.333,287.083 73.333 C 287.221 73.333,287.333 73.407,287.333 73.498 C 287.333 73.589,287.633 73.711,288.000 73.769 C 288.367 73.828,288.667 73.941,288.667 74.021 C 288.667 74.101,288.854 74.167,289.083 74.167 C 289.313 74.167,289.500 74.242,289.500 74.333 C 289.500 74.425,289.618 74.500,289.762 74.500 C 290.160 74.500,289.987 75.219,289.542 75.415 C 289.335 75.505,289.167 75.636,289.167 75.706 C 289.167 75.776,289.054 75.833,288.917 75.833 C 288.779 75.833,288.667 75.758,288.667 75.667 C 288.667 75.575,288.485 75.500,288.264 75.500 C 288.042 75.500,287.833 75.416,287.799 75.314 C 287.765 75.211,287.440 75.118,287.077 75.105 C 286.157 75.075,285.936 76.220,286.824 76.415 C 287.104 76.476,287.333 76.596,287.333 76.680 C 287.333 76.764,288.008 76.833,288.833 76.833 C 289.722 76.833,290.333 76.765,290.333 76.667 C 290.333 76.575,290.429 76.500,290.546 76.500 C 291.023 76.500,291.333 75.843,291.333 74.833 C 291.333 73.823,291.023 73.167,290.546 73.167 C 290.429 73.167,290.333 73.092,290.333 73.000 C 290.333 72.908,290.150 72.833,289.927 72.833 C 289.703 72.833,289.479 72.768,289.430 72.688 C 289.381 72.608,289.109 72.497,288.827 72.440 C 287.954 72.266,287.652 71.824,288.099 71.377 C 288.550 70.926,289.939 71.154,290.371 71.750 C 290.504 71.933,291.333 71.139,291.333 70.829 C 291.333 70.561,290.900 70.167,290.605 70.167 C 290.466 70.167,290.307 70.092,290.250 70.000 C 290.193 69.908,289.589 69.833,288.907 69.833 C 288.191 69.833,287.667 69.904,287.667 70.000 M295.833 70.000 C 295.833 70.092,295.759 70.167,295.669 70.167 C 295.578 70.167,295.353 70.296,295.169 70.454 C 294.560 70.975,294.768 73.333,295.423 73.333 C 295.557 73.333,295.667 73.407,295.667 73.498 C 295.667 73.589,295.967 73.711,296.333 73.769 C 296.700 73.828,297.000 73.941,297.000 74.021 C 297.000 74.101,297.098 74.167,297.217 74.167 C 297.609 74.167,298.331 74.579,298.332 74.804 C 298.334 75.068,297.928 75.500,297.679 75.500 C 297.580 75.500,297.500 75.575,297.500 75.667 C 297.500 75.758,297.387 75.833,297.250 75.833 C 297.112 75.833,297.000 75.758,297.000 75.667 C 297.000 75.575,296.813 75.500,296.583 75.500 C 296.354 75.500,296.167 75.431,296.167 75.347 C 296.167 75.135,295.248 74.952,294.837 75.082 C 294.191 75.287,294.375 76.295,295.083 76.428 C 295.404 76.488,295.667 76.604,295.667 76.685 C 295.667 76.767,296.304 76.833,297.083 76.833 C 297.917 76.833,298.500 76.765,298.500 76.667 C 298.500 76.575,298.610 76.500,298.744 76.500 C 298.877 76.500,299.140 76.336,299.327 76.135 C 300.053 75.356,299.622 73.167,298.744 73.167 C 298.610 73.167,298.500 73.092,298.500 73.000 C 298.500 72.908,298.313 72.833,298.083 72.833 C 297.854 72.833,297.667 72.765,297.667 72.681 C 297.667 72.598,297.370 72.479,297.007 72.418 C 296.078 72.261,295.842 71.194,296.726 71.148 C 297.312 71.118,297.911 71.193,298.000 71.309 C 298.367 71.784,298.852 71.830,299.254 71.428 C 299.862 70.820,299.651 70.167,298.845 70.167 C 298.655 70.167,298.500 70.092,298.500 70.000 C 298.500 69.903,297.944 69.833,297.167 69.833 C 296.389 69.833,295.833 69.903,295.833 70.000 M309.667 70.053 C 309.061 70.339,308.167 71.310,308.167 71.681 C 308.167 71.856,308.092 72.000,308.000 72.000 C 307.903 72.000,307.833 72.556,307.833 73.333 C 307.833 74.067,307.902 74.667,307.987 74.667 C 308.071 74.667,308.187 74.881,308.245 75.144 C 308.352 75.630,308.937 76.250,309.644 76.625 C 310.115 76.874,312.667 76.910,312.667 76.667 C 312.667 76.575,312.768 76.500,312.892 76.500 C 313.204 76.500,314.000 75.737,314.000 75.439 C 314.000 75.304,314.094 75.163,314.208 75.125 C 314.357 75.075,314.417 74.558,314.417 73.313 L 314.417 71.571 313.750 70.908 C 312.689 69.854,310.886 69.476,309.667 70.053 M320.031 70.173 C 319.831 70.360,319.667 70.435,319.667 70.340 C 319.667 70.245,319.367 70.167,319.000 70.167 L 318.333 70.167 318.333 73.333 L 318.333 76.500 318.987 76.500 L 319.641 76.500 319.695 74.279 C 319.740 72.482,319.803 72.006,320.027 71.782 C 320.179 71.630,320.330 71.426,320.363 71.329 C 320.395 71.232,320.735 71.140,321.119 71.124 C 322.338 71.076,322.500 71.435,322.500 74.192 L 322.500 76.500 323.167 76.500 L 323.833 76.500 323.833 73.757 C 323.833 71.767,323.776 70.965,323.625 70.837 C 323.510 70.741,323.207 70.475,322.950 70.247 C 322.319 69.688,320.600 69.644,320.031 70.173 M191.691 72.923 C 191.728 74.636,191.818 75.724,191.929 75.798 C 192.027 75.863,192.156 76.048,192.215 76.208 C 192.274 76.369,192.475 76.500,192.661 76.500 C 192.848 76.500,193.000 76.575,193.000 76.667 C 193.000 76.762,193.500 76.833,194.167 76.833 C 194.833 76.833,195.333 76.762,195.333 76.667 C 195.333 76.575,195.746 76.500,196.250 76.500 L 197.167 76.500 197.167 73.333 L 197.167 70.167 196.500 70.167 L 195.833 70.167 195.831 72.292 C 195.828 74.865,195.789 75.032,195.115 75.325 C 194.823 75.453,194.528 75.638,194.461 75.737 C 194.378 75.859,194.338 75.849,194.336 75.708 C 194.334 75.594,194.200 75.500,194.037 75.500 C 193.289 75.500,193.087 74.890,193.029 72.458 L 192.975 70.167 192.304 70.167 L 191.632 70.167 191.691 72.923 M251.000 70.583 C 251.000 70.813,251.075 71.000,251.167 71.000 C 251.258 71.000,251.333 71.146,251.333 71.323 C 251.333 71.501,251.403 71.690,251.487 71.742 C 251.572 71.794,251.690 72.061,251.750 72.335 C 251.811 72.609,251.919 72.833,251.992 72.833 C 252.065 72.833,252.172 73.133,252.231 73.500 C 252.289 73.867,252.411 74.167,252.502 74.167 C 252.593 74.167,252.667 74.279,252.667 74.417 C 252.667 74.554,252.732 74.667,252.812 74.667 C 252.892 74.667,253.005 74.967,253.064 75.333 C 253.123 75.700,253.245 76.000,253.335 76.000 C 253.426 76.000,253.500 76.188,253.500 76.417 C 253.500 76.646,253.425 76.833,253.333 76.833 C 253.242 76.833,253.167 76.946,253.167 77.083 C 253.167 77.221,253.060 77.333,252.931 77.333 C 252.801 77.333,252.651 77.427,252.597 77.542 C 252.519 77.708,252.481 77.708,252.403 77.542 C 252.217 77.144,251.667 77.300,251.667 77.750 C 251.667 77.979,251.592 78.167,251.500 78.167 C 251.408 78.167,251.333 78.279,251.333 78.417 C 251.333 78.613,251.564 78.667,252.406 78.667 C 253.637 78.667,254.333 78.456,254.333 78.082 C 254.333 77.940,254.437 77.783,254.564 77.734 C 254.690 77.686,254.841 77.351,254.899 76.990 C 254.957 76.629,255.059 76.333,255.127 76.332 C 255.264 76.331,255.666 75.532,255.668 75.258 C 255.668 75.162,255.774 74.882,255.902 74.636 C 256.030 74.390,256.186 73.959,256.248 73.678 C 256.309 73.397,256.429 73.167,256.513 73.167 C 256.598 73.167,256.667 72.979,256.667 72.750 C 256.667 72.521,256.741 72.333,256.831 72.333 C 256.922 72.333,257.044 72.033,257.103 71.667 C 257.161 71.300,257.275 71.000,257.355 71.000 C 257.435 71.000,257.500 70.813,257.500 70.583 C 257.500 69.570,255.893 70.170,255.718 71.248 C 255.666 71.570,255.576 71.833,255.519 71.833 C 255.392 71.833,255.059 72.583,254.908 73.208 C 254.847 73.460,254.730 73.667,254.649 73.667 C 254.567 73.667,254.500 73.860,254.500 74.095 C 254.500 74.476,254.472 74.496,254.250 74.274 C 254.112 74.136,254.000 73.943,254.000 73.845 C 254.000 73.747,253.935 73.667,253.855 73.667 C 253.775 73.667,253.661 73.367,253.603 73.000 C 253.544 72.633,253.432 72.333,253.353 72.333 C 253.274 72.333,253.161 72.033,253.103 71.667 C 253.044 71.300,252.922 71.000,252.831 71.000 C 252.741 71.000,252.667 70.920,252.667 70.821 C 252.667 70.466,252.178 70.167,251.595 70.167 C 251.071 70.167,251.000 70.217,251.000 70.583 M303.000 73.333 L 303.000 76.500 303.667 76.500 L 304.333 76.500 304.333 73.333 L 304.333 70.167 303.667 70.167 L 303.000 70.167 303.000 73.333 M204.979 71.373 C 205.013 71.463,205.181 71.659,205.354 71.806 C 206.198 72.529,205.797 72.833,204.000 72.833 C 202.254 72.833,201.992 72.699,202.583 72.107 C 202.721 71.970,202.833 71.777,202.833 71.679 C 202.833 71.580,202.946 71.500,203.083 71.500 C 203.221 71.500,203.333 71.430,203.333 71.346 C 203.333 70.989,204.844 71.013,204.979 71.373 M219.645 71.373 C 219.679 71.463,219.848 71.659,220.020 71.806 C 220.865 72.529,220.464 72.833,218.667 72.833 C 216.921 72.833,216.658 72.699,217.250 72.107 C 217.387 71.970,217.500 71.777,217.500 71.679 C 217.500 71.580,217.612 71.500,217.750 71.500 C 217.887 71.500,218.000 71.430,218.000 71.346 C 218.000 70.989,219.511 71.013,219.645 71.373 M229.000 71.353 C 229.000 71.434,229.104 71.500,229.232 71.500 C 229.359 71.500,229.511 71.688,229.568 71.917 C 229.626 72.146,229.747 72.333,229.837 72.333 C 230.120 72.333,230.038 74.450,229.750 74.560 C 229.612 74.613,229.500 74.744,229.500 74.851 C 229.500 75.112,228.988 75.488,228.625 75.495 C 228.465 75.498,228.327 75.594,228.320 75.708 C 228.310 75.875,228.290 75.875,228.223 75.708 C 228.177 75.594,227.996 75.500,227.821 75.500 C 227.452 75.500,226.833 75.016,226.833 74.727 C 226.833 74.617,226.748 74.499,226.643 74.464 C 226.529 74.426,226.452 74.007,226.452 73.417 C 226.452 72.827,226.529 72.407,226.643 72.369 C 226.748 72.334,226.833 72.211,226.833 72.095 C 226.833 71.744,227.402 71.203,227.839 71.138 C 228.387 71.057,229.000 71.170,229.000 71.353 M312.140 71.363 C 312.227 71.583,312.636 71.962,312.872 72.041 C 313.795 72.348,312.704 75.500,311.675 75.500 C 311.502 75.500,311.317 75.594,311.264 75.708 C 311.186 75.875,311.147 75.875,311.069 75.708 C 311.016 75.594,310.846 75.500,310.693 75.500 C 310.339 75.500,309.500 74.733,309.500 74.410 C 309.500 74.276,309.425 74.167,309.333 74.167 C 309.242 74.167,309.167 73.792,309.167 73.333 C 309.167 72.875,309.242 72.500,309.333 72.500 C 309.425 72.500,309.500 72.414,309.500 72.310 C 309.500 71.484,311.854 70.640,312.140 71.363 M246.000 73.000 C 246.000 73.092,246.112 73.167,246.250 73.167 C 246.387 73.167,246.500 73.279,246.500 73.417 C 246.500 73.554,246.575 73.667,246.667 73.667 C 246.758 73.667,246.833 73.854,246.833 74.083 C 246.833 74.313,246.758 74.500,246.667 74.500 C 246.575 74.500,246.500 74.604,246.500 74.731 C 246.500 75.057,245.965 75.162,244.292 75.164 L 242.833 75.167 242.833 74.000 L 242.833 72.833 244.417 72.833 C 245.361 72.833,246.000 72.901,246.000 73.000 M280.167 73.500 C 280.167 73.592,280.392 73.667,280.667 73.667 C 281.189 73.667,281.291 73.938,281.073 74.750 C 280.986 75.072,280.315 75.500,279.897 75.500 C 279.786 75.500,279.656 75.594,279.610 75.708 C 279.555 75.844,279.477 75.858,279.388 75.750 C 279.312 75.658,279.044 75.476,278.792 75.347 C 278.015 74.946,278.302 73.667,279.169 73.667 C 279.340 73.667,279.527 73.592,279.583 73.500 C 279.640 73.408,279.794 73.333,279.927 73.333 C 280.059 73.333,280.167 73.408,280.167 73.500 " stroke="none" fill="#240c74" fill-rule="evenodd"></path></g></svg>